<svg version="1.1" preserveAspectRatio="none" xmlns="http://www.w3.org/2000/svg" width="500" height="500" viewBox="0 0 500 500"><rect width="100%" height="100%" fill="#FBFBFB" fill-opacity="1"/><svg viewBox="76.7412 213.0955 396.9112 106" width="333" height="88.93173082543399" x="83.5px" y="205.5341px" xmlns="http://www.w3.org/2000/svg" xmlns:xlink="http://www.w3.org/1999/xlink" preserveAspectRatio="none"><defs></defs><style>.companyName {fill:#535353;fill-opacity:1;}.icon1 {fill:#F7CEC1;fill-opacity:1;}.icon3-str {stroke:#9C9C9C;stroke-opacity:1;}.shapeStroke-str {stroke:#535353;stroke-opacity:1;}</style><g opacity="1" transform="rotate(0 76.7412 249.0955)">
<svg width="396.9112" height="70" x="76.7412" y="249.0955" version="1.1" preserveAspectRatio="none" viewBox="1.44 -29.6 213.2 37.6">
  <g transform="matrix(1 0 0 1 0 0)" class="companyName"><path id="id-D6z1nYkh11" d="M11.32 0.40Q8.44 0.40 6.22-0.56Q4-1.52 1.92-3.56L1.92-3.56Q1.44-3.96 1.44-4.52L1.44-4.52Q1.44-5 1.82-5.40Q2.20-5.80 2.68-5.80L2.68-5.80Q3.16-5.80 3.56-5.40L3.56-5.40Q6.68-1.96 11.36-1.96L11.36-1.96Q14.24-1.96 16.14-3.32Q18.04-4.68 18.04-6.88L18.04-6.88Q18.04-8.60 17.10-9.74Q16.16-10.88 14.64-11.60Q13.12-12.32 10.76-13.08L10.76-13.08Q8.20-13.84 6.46-14.76Q4.72-15.68 3.64-17.22Q2.56-18.76 2.56-21.12L2.56-21.12Q2.56-23.24 3.70-24.88Q4.84-26.52 6.90-27.46Q8.96-28.40 11.64-28.40L11.64-28.40Q14.08-28.40 16.22-27.58Q18.36-26.76 19.64-25.24L19.64-25.24Q20.24-24.56 20.24-24.08L20.24-24.08Q20.24-23.64 19.84-23.26Q19.44-22.88 18.96-22.88L18.96-22.88Q18.56-22.88 18.28-23.16L18.28-23.16Q17.20-24.44 15.40-25.24Q13.60-26.04 11.64-26.04L11.64-26.04Q8.72-26.04 6.88-24.74Q5.04-23.44 5.04-21.20L5.04-21.20Q5.04-18.88 6.80-17.64Q8.56-16.40 11.84-15.36L11.84-15.36Q14.68-14.52 16.48-13.64Q18.28-12.76 19.42-11.14Q20.56-9.52 20.56-6.88L20.56-6.88Q20.56-4.84 19.38-3.18Q18.20-1.52 16.10-0.56Q14 0.40 11.32 0.40L11.32 0.40Z M33.64-18.12L29.64-18.12L29.64-4.72Q29.64-3.20 30.20-2.66Q30.76-2.12 31.68-2.12L31.68-2.12Q31.92-2.12 32.28-2.22Q32.64-2.32 32.84-2.32L32.84-2.32Q33.20-2.32 33.46-2.02Q33.72-1.72 33.72-1.32L33.72-1.32Q33.72-0.76 33.08-0.38Q32.44 0 31.56 0L31.56 0Q30.48 0 29.64-0.20Q28.80-0.40 28.02-1.40Q27.24-2.40 27.24-4.60L27.24-4.60L27.24-18.12L24.32-18.12Q23.84-18.12 23.50-18.44Q23.16-18.76 23.16-19.24L23.16-19.24Q23.16-19.72 23.50-20.04Q23.84-20.36 24.32-20.36L24.32-20.36L27.24-20.36L27.24-24.80Q27.24-25.32 27.58-25.66Q27.92-26 28.44-26L28.44-26Q28.96-26 29.30-25.66Q29.64-25.32 29.64-24.80L29.64-24.80L29.64-20.36L33.64-20.36Q34.08-20.36 34.42-20Q34.76-19.64 34.76-19.20L34.76-19.20Q34.76-18.72 34.44-18.42Q34.12-18.12 33.64-18.12L33.64-18.12Z M54.48-20.32Q55-20.32 55.34-19.98Q55.68-19.64 55.68-19.12L55.68-19.12L55.68-7.84Q55.68-3.92 53.48-1.82Q51.28 0.28 47.40 0.28L47.40 0.28Q43.56 0.28 41.38-1.82Q39.20-3.92 39.20-7.84L39.20-7.84L39.20-19.12Q39.20-19.64 39.54-19.98Q39.88-20.32 40.40-20.32L40.40-20.32Q40.92-20.32 41.26-19.98Q41.60-19.64 41.60-19.12L41.60-19.12L41.60-7.84Q41.60-4.96 43.12-3.46Q44.64-1.96 47.40-1.96L47.40-1.96Q50.20-1.96 51.74-3.46Q53.28-4.96 53.28-7.84L53.28-7.84L53.28-19.12Q53.28-19.64 53.62-19.98Q53.96-20.32 54.48-20.32L54.48-20.32Z M78.56-29.60Q79.08-29.60 79.42-29.26Q79.76-28.92 79.76-28.40L79.76-28.40L79.76-1.20Q79.76-0.68 79.42-0.34Q79.08 0 78.56 0L78.56 0Q78.04 0 77.70-0.34Q77.36-0.68 77.36-1.20L77.36-1.20L77.36-4Q76.36-2.16 74.38-0.88Q72.40 0.40 70 0.40L70 0.40Q67.36 0.40 65.22-0.98Q63.08-2.36 61.84-4.80Q60.60-7.24 60.60-10.28L60.60-10.28Q60.60-13.28 61.84-15.72Q63.08-18.16 65.22-19.54Q67.36-20.92 69.96-20.92L69.96-20.92Q72.32-20.92 74.32-19.74Q76.32-18.56 77.36-16.68L77.36-16.68L77.36-28.40Q77.36-28.92 77.70-29.26Q78.04-29.60 78.56-29.60L78.56-29.60ZM70.24-1.84Q72.32-1.84 73.98-2.92Q75.64-4 76.58-5.94Q77.52-7.88 77.52-10.28L77.52-10.28Q77.52-12.64 76.58-14.56Q75.64-16.48 73.98-17.58Q72.32-18.68 70.24-18.68L70.24-18.68Q68.16-18.68 66.50-17.58Q64.84-16.48 63.90-14.56Q62.96-12.64 62.96-10.28L62.96-10.28Q62.96-7.88 63.90-5.96Q64.84-4.04 66.50-2.94Q68.16-1.84 70.24-1.84L70.24-1.84Z M101.28-20.80Q101.80-20.80 102.14-20.46Q102.48-20.12 102.48-19.60L102.48-19.60L102.48-1.96Q102.48 1.20 101.24 3.44Q100 5.68 97.80 6.84Q95.60 8 92.84 8L92.84 8Q91.16 8 89.70 7.64Q88.24 7.28 87.28 6.68L87.28 6.68Q86.44 6.16 86.44 5.52L86.44 5.52Q86.44 5.44 86.52 5.12L86.52 5.12Q86.64 4.72 86.92 4.52Q87.20 4.32 87.52 4.32L87.52 4.32Q87.76 4.32 88 4.44L88 4.44Q90.56 5.84 92.88 5.84L92.88 5.84Q96.20 5.84 98.14 3.76Q100.08 1.68 100.08-1.92L100.08-1.92L100.08-3.32Q99.08-1.64 97.20-0.62Q95.32 0.40 93.12 0.40L93.12 0.40Q89.64 0.40 87.84-1.68Q86.04-3.76 86.04-7.32L86.04-7.32L86.04-19.60Q86.04-20.12 86.38-20.46Q86.72-20.80 87.24-20.80L87.24-20.80Q87.76-20.80 88.10-20.46Q88.44-20.12 88.44-19.60L88.44-19.60L88.44-7.68Q88.44-4.80 89.70-3.32Q90.96-1.84 93.64-1.84L93.64-1.84Q95.28-1.84 96.78-2.66Q98.28-3.48 99.18-4.82Q100.08-6.16 100.08-7.68L100.08-7.68L100.08-19.60Q100.08-20.12 100.42-20.46Q100.76-20.80 101.28-20.80L101.28-20.80Z M130.96-28Q133.16-28 134.92-26.98Q136.68-25.96 137.66-24.14Q138.64-22.32 138.64-20.04L138.64-20.04Q138.64-17.76 137.66-15.88Q136.68-14 134.92-12.92Q133.16-11.84 130.96-11.84L130.96-11.84L122.68-11.84L122.68-1.20Q122.68-0.68 122.34-0.34Q122 0 121.48 0L121.48 0Q120.96 0 120.62-0.34Q120.28-0.68 120.28-1.20L120.28-1.20L120.28-26.80Q120.28-27.32 120.62-27.66Q120.96-28 121.48-28L121.48-28L130.96-28ZM130.96-14.16Q133.28-14.16 134.72-15.84Q136.16-17.52 136.16-20.04L136.16-20.04Q136.16-22.52 134.72-24.08Q133.28-25.64 130.96-25.64L130.96-25.64L122.68-25.64L122.68-14.16L130.96-14.16Z M146.16-1.20Q146.16-0.68 145.82-0.34Q145.48 0 144.96 0L144.96 0Q144.44 0 144.10-0.34Q143.76-0.68 143.76-1.20L143.76-1.20L143.76-28.40Q143.76-28.92 144.10-29.26Q144.44-29.60 144.96-29.60L144.96-29.60Q145.48-29.60 145.82-29.26Q146.16-28.92 146.16-28.40L146.16-28.40L146.16-1.20Z M169.32-20.44Q169.84-20.44 170.18-20.08Q170.52-19.72 170.52-19.20L170.52-19.20L170.52-1.20Q170.52-0.68 170.18-0.34Q169.84 0 169.32 0L169.32 0Q168.80 0 168.46-0.34Q168.12-0.68 168.12-1.20L168.12-1.20L168.12-3.88Q167.12-2.08 165.12-0.84Q163.12 0.40 160.76 0.40L160.76 0.40Q158.08 0.40 155.94-1Q153.80-2.40 152.58-4.84Q151.36-7.28 151.36-10.32L151.36-10.32Q151.36-13.36 152.60-15.78Q153.84-18.20 155.98-19.56Q158.12-20.92 160.72-20.92L160.72-20.92Q163.12-20.92 165.12-19.76Q167.12-18.60 168.12-16.72L168.12-16.72L168.12-19.20Q168.12-19.72 168.46-20.08Q168.80-20.44 169.32-20.44L169.32-20.44ZM161.00-1.84Q163.08-1.84 164.74-2.94Q166.40-4.04 167.34-5.98Q168.28-7.92 168.28-10.32L168.28-10.32Q168.28-12.64 167.34-14.56Q166.40-16.48 164.74-17.58Q163.08-18.68 161.00-18.68L161.00-18.68Q158.92-18.68 157.26-17.60Q155.60-16.52 154.66-14.62Q153.72-12.72 153.72-10.32L153.72-10.32Q153.72-7.92 154.64-5.98Q155.56-4.04 157.22-2.94Q158.88-1.84 161.00-1.84L161.00-1.84Z M185.64-20.92Q187.52-20.92 189.14-20.50Q190.76-20.08 191.74-19.36Q192.72-18.64 192.72-17.80L192.72-17.80Q192.72-17.36 192.42-17Q192.12-16.64 191.68-16.64L191.68-16.64Q191.28-16.64 191.02-16.80Q190.76-16.96 190.44-17.28L190.44-17.28Q189.92-17.80 189.44-18.04L189.44-18.04Q188.84-18.32 187.86-18.50Q186.88-18.68 185.76-18.68L185.76-18.68Q183.56-18.68 181.74-17.56Q179.92-16.44 178.88-14.52Q177.84-12.60 177.84-10.28L177.84-10.28Q177.84-7.88 178.84-5.96Q179.84-4.04 181.62-2.94Q183.40-1.84 185.68-1.84L185.68-1.84Q187.12-1.84 187.98-2.08Q188.84-2.32 189.68-2.76L189.68-2.76Q189.96-2.92 190.64-3.48L190.64-3.48Q190.96-3.76 191.20-3.90Q191.44-4.04 191.72-4.04L191.72-4.04Q192.20-4.04 192.48-3.74Q192.76-3.44 192.76-2.96L192.76-2.96Q192.76-2.28 191.80-1.50Q190.84-0.72 189.16-0.16Q187.48 0.40 185.44 0.40L185.44 0.40Q182.52 0.40 180.24-0.98Q177.96-2.36 176.70-4.80Q175.44-7.24 175.44-10.28L175.44-10.28Q175.44-13.20 176.72-15.62Q178-18.04 180.32-19.48Q182.64-20.92 185.64-20.92L185.64-20.92Z M214.64-11.40Q214.64-10.92 214.28-10.58Q213.92-10.24 213.44-10.24L213.44-10.24L198.32-10.24Q198.32-7.84 199.30-5.94Q200.28-4.04 202.10-2.94Q203.92-1.84 206.40-1.84L206.40-1.84Q208.32-1.84 209.84-2.64Q211.36-3.44 212.28-4.68L212.28-4.68Q212.72-5.04 213.12-5.04L213.12-5.04Q213.52-5.04 213.84-4.72Q214.16-4.40 214.16-4L214.16-4Q214.16-3.56 213.76-3.16L213.76-3.16Q212.48-1.60 210.54-0.60Q208.60 0.40 206.44 0.40L206.44 0.40Q203.36 0.40 201-0.92Q198.64-2.24 197.32-4.62Q196-7 196-10.12L196-10.12Q196-13.40 197.30-15.86Q198.60-18.32 200.76-19.62Q202.92-20.92 205.36-20.92L205.36-20.92Q207.76-20.92 209.86-19.80Q211.96-18.68 213.28-16.52Q214.60-14.36 214.64-11.40L214.64-11.40ZM205.36-18.60Q203.04-18.60 201.06-17Q199.08-15.40 198.52-12.40L198.52-12.40L212.16-12.40L212.16-12.72Q211.96-14.52 210.96-15.86Q209.96-17.20 208.46-17.90Q206.96-18.60 205.36-18.60L205.36-18.60Z"/></g>
</svg>
</g><g opacity="1" transform="rotate(0 235.1968 213.0955)">
<svg width="80" height="6" x="235.1968" y="213.0955" version="1.1" preserveAspectRatio="none" viewBox="0 0 80 6">
  <defs><rect x="0" y="0" width="80" height="6" rx="0%" ry="0%" id="id-80LYwx1g1701354660632"></rect></defs><use class="icon1 shapeStroke-str" style="stroke-width:0;" xlink:href="#id-80LYwx1g1701354660632"></use>
</svg>
</g></svg></svg>